<svg width="158" height="63" viewBox="0 0 158 63" fill="none" xmlns="http://www.w3.org/2000/svg">
<path d="M120.281 22.9842L120.28 22.9828L120.279 22.9814L120.278 22.9806C120.279 22.9818 120.28 22.983 120.281 22.9842ZM120.281 22.9842L120.282 22.9857L120.282 22.9865C120.282 22.9857 120.281 22.985 120.281 22.9842ZM6.57779 4.26875L6.57874 4.26981L6.57779 4.26875ZM6.57779 4.26875C6.57843 4.26946 6.57907 4.27018 6.57971 4.2709M6.57779 4.26875L6.58105 4.2724M6.57971 4.2709C6.58016 4.2714 6.5806 4.2719 6.58105 4.2724M6.57971 4.2709L6.58063 4.27192L6.58105 4.2724M6.57971 4.2709L6.58105 4.2724M127.286 34.0318C123.088 32.1959 119.272 29.0413 116.905 25.13C116.9 25.1222 116.895 25.1138 116.89 25.1048C116.881 25.091 116.872 25.0755 116.862 25.0585C116.849 25.037 116.836 25.013 116.821 24.9867C116.772 24.8985 116.701 24.7598 116.635 24.5896C116.577 24.4368 116.482 24.1538 116.464 23.801C116.446 23.447 116.499 22.7964 117.008 22.2221C117.495 21.6738 118.098 21.5359 118.404 21.4975C118.727 21.4571 119.002 21.4897 119.158 21.5149C119.331 21.5427 119.476 21.5814 119.57 21.6094C119.62 21.6242 119.663 21.6382 119.697 21.6496C119.705 21.6526 119.713 21.6554 119.721 21.6581C119.728 21.6606 119.735 21.663 119.741 21.6653L119.759 21.6717L119.764 21.6737C125.344 23.74 131.313 23.9322 137.586 24.0409C137.622 24.0415 137.658 24.0431 137.693 24.0456C142.431 24.3817 147.191 24.1967 151.89 23.4938L151.913 23.4904C152.575 23.3995 153.248 23.5093 153.846 23.8048C154.444 24.1003 154.939 24.5673 155.269 25.1443C155.599 25.7213 155.75 26.3829 155.704 27.0449C155.659 27.707 155.418 28.3418 155.011 28.868L155.007 28.8735L153.149 31.2587C147.867 38.7725 146.556 48.7111 145.394 58.3888C145.393 58.3986 145.392 58.409 145.391 58.42C145.386 58.4647 145.379 58.5217 145.368 58.5875C145.348 58.7104 145.31 58.903 145.235 59.1195C145.167 59.315 145.023 59.6666 144.722 59.9994C144.382 60.3759 143.812 60.7471 143.049 60.7471C142.275 60.7471 141.688 60.3639 141.337 59.9485C141.035 59.5903 140.905 59.2161 140.848 59.0163C140.783 58.7927 140.756 58.5953 140.743 58.4714C140.737 58.41 140.733 58.3562 140.731 58.3128C140.171 52.2724 140.074 46.0972 140.943 39.9626C119.929 54.027 93.6917 55.9724 69.1113 49.8151C42.9347 43.2579 18.356 27.453 3.50258 6.82401C3.46724 6.77973 3.4248 6.724 3.379 6.65824C3.28574 6.52433 3.14948 6.30756 3.0396 6.02877C2.93336 5.75921 2.80699 5.3187 2.86723 4.78589C2.93405 4.19494 3.21557 3.64019 3.69013 3.22387C4.8619 2.19591 6.18762 2.73978 6.54725 2.91703C6.79903 3.04112 6.99879 3.1801 7.12599 3.2765C7.19305 3.32731 7.24889 3.37315 7.29154 3.40954C7.31303 3.42788 7.33165 3.44423 7.34715 3.4581L7.36819 3.47713L7.37701 3.48524L7.38099 3.48892L7.38287 3.49067L7.38379 3.49152C7.38416 3.49187 7.38453 3.49221 6.61763 4.31459C6.61764 4.31461 6.61765 4.31462 6.61766 4.31463L7.38468 3.49236C7.42275 3.52787 7.45942 3.56486 7.49461 3.60323C15.9003 12.7709 27.5247 20.9561 39.4505 27.2025C51.3842 33.453 63.4649 37.6815 72.7181 39.0443C95.3815 42.375 111.024 40.2402 128.876 34.6572C128.338 34.4689 127.808 34.2599 127.286 34.0318ZM120.285 22.9907C120.285 22.991 120.285 22.9912 120.285 22.9915L120.285 22.9913L120.285 22.9907ZM6.08218 4.88868L6.61753 4.31477C6.61752 4.31476 6.6175 4.31475 6.61749 4.31474C6.46947 4.47346 6.29287 4.66281 6.08218 4.88868Z" fill="#6d9c35" stroke="white" stroke-width="4" stroke-linejoin="round"/>
</svg>
