<svg width="158" height="63" viewBox="0 0 158 63" fill="none" xmlns="http://www.w3.org/2000/svg">
<path d="M120.281 40.3789L120.28 40.3802L120.279 40.3817L120.278 40.3824C120.279 40.3813 120.28 40.38 120.281 40.3789ZM120.281 40.3789L120.282 40.3773L120.282 40.3765C120.282 40.3773 120.281 40.3781 120.281 40.3789ZM6.57779 59.0943L6.57874 59.0932L6.57779 59.0943ZM6.57779 59.0943C6.57843 59.0936 6.57907 59.0929 6.57971 59.0921M6.57779 59.0943L6.58105 59.0906M6.57971 59.0921C6.58016 59.0916 6.5806 59.0911 6.58105 59.0906M6.57971 59.0921L6.58063 59.0911L6.58105 59.0906M6.57971 59.0921L6.58105 59.0906M127.286 29.3313C123.088 31.1671 119.272 34.3218 116.905 38.233C116.9 38.2408 116.895 38.2492 116.89 38.2582C116.881 38.272 116.872 38.2875 116.862 38.3045C116.849 38.3261 116.836 38.3501 116.821 38.3763C116.772 38.4646 116.701 38.6032 116.635 38.7735C116.577 38.9262 116.482 39.2093 116.464 39.562C116.446 39.916 116.499 40.5667 117.008 41.1409C117.495 41.6892 118.098 41.8272 118.404 41.8655C118.727 41.906 119.002 41.8733 119.158 41.8481C119.331 41.8203 119.476 41.7817 119.57 41.7536C119.62 41.7388 119.663 41.7249 119.697 41.7134C119.705 41.7105 119.713 41.7076 119.721 41.705C119.728 41.7024 119.735 41.7 119.741 41.6978L119.759 41.6914L119.764 41.6894C125.344 39.6231 131.313 39.4308 137.586 39.3222C137.622 39.3215 137.658 39.32 137.693 39.3174C142.431 38.9813 147.191 39.1664 151.89 39.8692L151.913 39.8726C152.575 39.9636 153.248 39.8537 153.846 39.5582C154.444 39.2628 154.939 38.7957 155.269 38.2187C155.599 37.6418 155.75 36.9802 155.704 36.3181C155.659 35.6561 155.418 35.0213 155.011 34.4951L155.007 34.4895L153.149 32.1043C147.867 24.5905 146.556 14.6519 145.394 4.97424C145.393 4.96448 145.392 4.95408 145.391 4.94308C145.386 4.89831 145.379 4.84132 145.368 4.77559C145.348 4.65266 145.31 4.46001 145.235 4.24359C145.167 4.04802 145.023 3.69646 144.722 3.36368C144.382 2.98717 143.812 2.61597 143.049 2.61597C142.275 2.61597 141.688 2.99911 141.337 3.41457C141.035 3.77272 140.905 4.14696 140.848 4.34673C140.783 4.57032 140.756 4.7677 140.743 4.89167C140.737 4.95305 140.733 5.00681 140.731 5.05021C140.171 11.0907 140.074 17.2659 140.943 23.4005C119.929 9.33599 93.6917 7.39066 69.1113 13.548C42.9347 20.1052 18.356 35.91 3.50258 56.539C3.46724 56.5833 3.4248 56.639 3.379 56.7048C3.28574 56.8387 3.14948 57.0555 3.0396 57.3343C2.93336 57.6038 2.80699 58.0443 2.86723 58.5771C2.93405 59.1681 3.21557 59.7229 3.69013 60.1392C4.8619 61.1671 6.18762 60.6233 6.54725 60.446C6.79903 60.3219 6.99879 60.1829 7.12599 60.0865C7.19305 60.0357 7.24889 59.9899 7.29154 59.9535C7.31303 59.9352 7.33165 59.9188 7.34715 59.9049L7.36819 59.8859L7.37701 59.8778L7.38099 59.8741L7.38287 59.8724L7.38379 59.8715C7.38416 59.8712 7.38453 59.8708 6.61763 59.0484C6.61764 59.0484 6.61765 59.0484 6.61766 59.0484L7.38468 59.8707C7.42275 59.8352 7.45942 59.7982 7.49461 59.7598C15.9003 50.5921 27.5247 42.4069 39.4505 36.1605C51.3842 29.91 63.4649 25.6816 72.7181 24.3188C95.3815 20.988 111.024 23.1228 128.876 28.7058C128.338 28.8941 127.808 29.1032 127.286 29.3313ZM120.285 40.3723C120.285 40.3721 120.285 40.3718 120.285 40.3715L120.285 40.3717L120.285 40.3723ZM6.08218 58.4744L6.61753 59.0483C6.61752 59.0483 6.6175 59.0483 6.61749 59.0483C6.46947 58.8896 6.29287 58.7002 6.08218 58.4744Z" fill="#6d9c35" stroke="white" stroke-width="4" stroke-linejoin="round"/>
</svg>
