<?xml version="1.0" encoding="UTF-8" standalone="no"?>
<!DOCTYPE svg PUBLIC "-//W3C//DTD SVG 1.1//EN" "http://www.w3.org/Graphics/SVG/1.1/DTD/svg11.dtd">
<svg width="100%" height="100%" viewBox="0 0 82 88" version="1.1" xmlns="http://www.w3.org/2000/svg" xmlns:xlink="http://www.w3.org/1999/xlink" xml:space="preserve" xmlns:serif="http://www.serif.com/" style="fill-rule:evenodd;clip-rule:evenodd;stroke-linejoin:round;stroke-miterlimit:2;">
    <g transform="matrix(1,0,0,1,-9,-6)">
        <path d="M48.411,26.456L24.411,41.456C23.005,42.335 22.578,44.185 23.456,45.59C24.336,46.996 26.191,47.425 27.59,46.545L29,45.663L29,65C29,66.657 30.343,68 32,68C32.581,68 69.341,68 68,68C69.657,68 71,66.657 71,65L71,45.663L72.411,46.545C73.803,47.417 75.66,47.005 76.545,45.59C77.422,44.185 76.996,42.335 75.59,41.456L51.59,26.456C50.617,25.849 49.383,25.849 48.411,26.456ZM53,62L47,62L47,50L53,50L53,62ZM65,41.913L65,62L59,62L59,47C59,45.343 57.657,44 56,44L44,44C42.343,44 41,45.343 41,47L41,62L35,62L35,41.913L50,32.538L65,41.913Z" style="fill:rgb(109,156,53);fill-rule:nonzero;"/>
    </g>
    <g transform="matrix(1,0,0,1,-9,-6)">
        <path d="M86,20C73.038,20 62.17,16.377 51.8,8.601C50.734,7.801 49.266,7.801 48.199,8.601C37.83,16.377 26.962,20 14,20C12.365,20 11.031,21.308 11,22.943C10.927,26.837 10.481,61.306 17.448,72.578C23.107,81.735 46.302,90.799 48.929,91.803C49.58,92.052 50.32,92.074 51.019,91.822C53.665,90.867 77.024,82.204 82.601,72.495C88.798,61.706 88.997,26.932 89,23.001C89,21.332 87.646,20 86,20ZM77.398,69.506C73.781,75.803 57.319,83.041 50.027,85.791C42.741,82.904 26.263,75.43 22.551,69.423C17.863,61.84 16.945,37.689 16.97,25.939C29.142,25.426 39.991,21.736 50,14.708C59.993,21.726 70.827,25.416 82.975,25.936C82.796,37.845 81.588,62.211 77.398,69.506Z" style="fill:rgb(109,156,53);fill-rule:nonzero;"/>
    </g>
</svg>
