<svg xmlns="http://www.w3.org/2000/svg" viewBox="0 0 32 40" x="0px" y="0px"><path d="m9.083407664900733,17.04345703125v-3.49658203125c0-.3974609375-.310546875-.7265625-.7080078125-.75l-.9541015625-.05419921875c-.453125-.0263671875-.916015625-.01806640625-1.3740234375.0244140625l-1.0205078125.09521484375c-.2119140625.01953125-.40625.12841796875-.5322265625.2978515625-.9111328125,1.224609375-1.18359375,3.07080078125-1.2578125,3.80517578125-.0224609375.21142578125.0458984375.4228515625.1884765625.5810546875.1416015625.15771484375.345703125.24853515625.55859375.24853515625h4.3486328125c.4140625,0,.7509765625-.3369140625.7509765625-.75146484375Zm-1-.24853515625h-3.8203125c.08984375-.67822265625.33984375-2.03564453125.9697265625-2.947265625l.908203125-.08447265625c.4052734375-.03857421875.8173828125-.0458984375,1.2236328125-.0224609375l.71875.041015625v3.01318359375Z"/><path d="m24.308993602400733,20.9150390625c-.7021484375,0-1.2734375.5712890625-1.2734375,1.2734375,0,.70263671875.5712890625,1.27392578125,1.2734375,1.27392578125.703125,0,1.2744140625-.5712890625,1.2744140625-1.27392578125,0-.7021484375-.5712890625-1.2734375-1.2744140625-1.2734375Zm-.2734375,1.2734375c0-.15087890625.123046875-.2734375.2734375-.2734375.1513671875,0,.2744140625.12255859375.2744140625.2734375-.0009765625.30078125-.5478515625.302734375-.5478515625,0Z"/><path d="m18.211337352400733,20.9150390625c-.7021484375,0-1.2734375.5712890625-1.2734375,1.2734375,0,.70263671875.5712890625,1.27392578125,1.2734375,1.27392578125s1.2734375-.5712890625,1.2734375-1.27392578125c0-.7021484375-.5712890625-1.2734375-1.2734375-1.2734375Zm-.2734375,1.2734375c0-.15087890625.123046875-.2734375.2734375-.2734375s.2734375.12255859375.2734375.2734375c0,.3017578125-.546875.3017578125-.546875,0Z"/><path d="m30.000399852400733,17.6943359375h-.095703125v-.49365234375c0-.2763671875-.2236328125-.5-.5-.5s-.5.2236328125-.5.5v.49365234375h-2.0341796875c.13525390625-.28826904296875.21875-.6173095703125.21875-.97265625,0-.35552978515625-.08349609375-.68475341796875-.218994140625-.97314453125h.900634765625c.8916015625,0,1.6162109375-.884765625,1.6162109375-1.97265625s-.724609375-1.97314453125-1.6162109375-1.97314453125h-.0859375c.13134765625-.28668212890625.2119140625-.6148681640625.2119140625-.97314453125,0-1.10595703125-.7099609375-1.97265625-1.6162109375-1.97265625h-2.9775390625v-1.4375c0-.2763671875-.2236328125-.5-.5-.5s-.5.2236328125-.5.5v1.4375h-6.900390625v-1.4375c0-.2763671875-.2236328125-.5-.5-.5s-.5.2236328125-.5.5v1.4375h-.7421875c-.8916015625,0-1.6171875.884765625-1.6171875,1.97265625,0,.35552978515625.08349609375.68475341796875.218994140625.97314453125h-.177001953125c-.8916015625,0-1.6162109375.88525390625-1.6162109375,1.97314453125,0,.83868408203125.4326171875,1.5517578125,1.038330078125,1.836669921875-.172119140625.314208984375-.271728515625.69482421875-.271728515625,1.109130859375,0,.3580322265625.08056640625.68603515625.2119140625.97265625h-1.091796875v-5.44580078125c0-.47998046875-.3759765625-.8671875-.8544921875-.880859375-1.1015625-.03173828125-3.8662109375-.0546875-5.779296875.45654296875-.2275390625.060546875-.423828125.21240234375-.541015625.41748046875-.353515625.62548828125-1.51953125,2.826171875-1.6806640625,4.9296875v2.9931640625c0,.45703125.2861328125.87451171875.7138671875,1.03955078125l1.0703125.4111328125c.107421875.0406494140625.220947265625.054931640625.3349609375.06158447265625-.030029296875.16668701171875-.0517578125.33642578125-.0517578125.51165771484375,0,1.5947265625,1.296875,2.89208984375,2.8916015625,2.89208984375s2.892578125-1.29736328125,2.892578125-2.89208984375c0-.17120361328125-.02197265625-.33685302734375-.050537109375-.5h6.06884765625c-.028564453125.16314697265625-.050537109375.32879638671875-.050537109375.5,0,1.5947265625,1.296875,2.89208984375,2.8916015625,2.89208984375s2.8916015625-1.29736328125,2.8916015625-2.89208984375c0-.17120361328125-.02197265625-.33685302734375-.050537109375-.5h.41552734375c-.028564453125.16314697265625-.050537109375.32879638671875-.050537109375.5,0,1.5947265625,1.296875,2.89208984375,2.8916015625,2.89208984375s2.892578125-1.29736328125,2.892578125-2.89208984375c0-.17120361328125-.02197265625-.33685302734375-.050537109375-.5h.688232421875c.0771484375,0,.154296875-.01806640625.2236328125-.052734375l2.1611328125-1.08056640625c.1689453125-.0849609375.2763671875-.2578125.2763671875-.447265625v-1.91357421875c0-.2763671875-.2236328125-.5-.5-.5Zm-3.9111328125-.97265625c0,.5732421875-.3251953125.97265625-.6171875.97265625-.291015625,0-.6162109375-.3994140625-.6162109375-.97265625,0-.57373046875.3251953125-.97314453125.6162109375-.97314453125.2919921875,0,.6171875.3994140625.6171875.97314453125Zm-10.6865234375.97265625v-1.94580078125h6.900390625v1.94580078125h-6.900390625Zm10.8779296875-4.8916015625h.086181640625c-.131591796875.28668212890625-.212158203125.6148681640625-.212158203125.97314453125,0,.3580322265625.08056640625.68603515625.2119140625.97265625h-3.0634765625v-1.94580078125h2.9775390625Zm-3.9775390625,1.94580078125h-6.900390625v-1.94580078125h6.900390625v1.94580078125Zm1,1h.771484375c-.13525390625.28839111328125-.21875.61761474609375-.21875.97314453125,0,.3553466796875.08349609375.68438720703125.21875.97265625h-.771484375v-1.94580078125Zm4.4677734375-1c-.291015625,0-.6162109375-.3994140625-.6162109375-.97265625,0-.57373046875.3251953125-.97314453125.6162109375-.97314453125s.6162109375.3994140625.6162109375.97314453125c0,.5732421875-.3251953125.97265625-.6162109375.97265625Zm-1.490234375-2.94580078125c-.291015625,0-.6162109375-.3994140625-.6162109375-.97314453125,0-.5732421875.3251953125-.97265625.6162109375-.97265625s.6162109375.3994140625.6162109375.97265625c0,.57373046875-.3251953125.97314453125-.6162109375.97314453125Zm-1.3974609375-1.94580078125c-.13525390625.28826904296875-.21875.6173095703125-.21875.97265625,0,.35552978515625.08349609375.68475341796875.21875.97314453125h-1.580078125v-1.94580078125h1.580078125Zm-2.580078125,0v1.94580078125h-6.900390625v-1.94580078125h6.900390625Zm-9.259765625.97265625c0-.5732421875.3251953125-.97265625.6171875-.97265625h.7421875v1.94580078125h-.7421875c-.2919921875,0-.6171875-.3994140625-.6171875-.97314453125Zm-.9580078125,1.97314453125h2.3173828125v1.94580078125h-2.3173828125c-.291015625,0-.6162109375-.3994140625-.6162109375-.97265625,0-.57373046875.3251953125-.97314453125.6162109375-.97314453125Zm.150390625,3.9189453125c0-.57373046875.3251953125-.97314453125.6162109375-.97314453125h1.55078125v1.94580078125h-1.55078125c-.291015625,0-.6162109375-.3994140625-.6162109375-.97265625Zm-8.59375,3.95947265625l-1.068359375-.41015625c-.0439453125-.01708984375-.0732421875-.0595703125-.0732421875-.1064453125l-.001953125-2.95458984375c.14453125-1.859375,1.2255859375-3.89599609375,1.4814453125-4.419921875,1.7578125-.46875,4.427734375-.4501953125,5.3759765625-.42578125v8.32421875h-.435791015625c-.5087890625-.830810546875-1.417236328125-1.3916015625-2.460693359375-1.3916015625-1.042236328125,0-1.94921875.559326171875-2.458251953125,1.38836669921875l-.359130859375-.00408935546875Zm2.8173828125,3.3994140625c-1.04296875,0-1.8916015625-.8486328125-1.8916015625-1.89208984375,0-1.04296875.8486328125-1.8916015625,1.8916015625-1.8916015625,1.0439453125,0,1.892578125.8486328125,1.892578125,1.8916015625,0,1.04345703125-.8486328125,1.89208984375-1.892578125,1.89208984375Zm11.751953125,0c-1.04296875,0-1.8916015625-.8486328125-1.8916015625-1.89208984375,0-1.04296875.8486328125-1.8916015625,1.8916015625-1.8916015625s1.8916015625.8486328125,1.8916015625,1.8916015625c0,1.04345703125-.8486328125,1.89208984375-1.8916015625,1.89208984375Zm6.09765625,0c-1.04296875,0-1.8916015625-.8486328125-1.8916015625-1.89208984375,0-1.04296875.8486328125-1.8916015625,1.8916015625-1.8916015625,1.0439453125,0,1.892578125.8486328125,1.892578125,1.8916015625,0,1.04345703125-.8486328125,1.89208984375-1.892578125,1.89208984375Zm5.19140625-4.28173828125l-1.779296875.8896484375h-.951416015625c-.5087890625-.830810546875-1.417236328125-1.3916015625-2.460693359375-1.3916015625s-1.951416015625.560791015625-2.4599609375,1.3916015625h-1.177734375c-.508544921875-.830810546875-1.41650390625-1.3916015625-2.4599609375-1.3916015625s-1.951416015625.560791015625-2.4599609375,1.3916015625h-5.3955078125v-1.994140625h19.14453125v1.1044921875Z"/><path d="m6.459384227400733,20.9150390625c-.7021484375,0-1.2734375.5712890625-1.2734375,1.2734375,0,.70263671875.5712890625,1.27392578125,1.2734375,1.27392578125.703125,0,1.2744140625-.5712890625,1.2744140625-1.27392578125,0-.7021484375-.5712890625-1.2734375-1.2744140625-1.2734375Zm-.2734375,1.2734375c0-.15087890625.123046875-.2734375.2734375-.2734375.1513671875,0,.2744140625.12255859375.2744140625.2734375-.0009765625.30078125-.5478515625.302734375-.5478515625,0Z"/><text x="0" y="47" fill="#000000" font-size="5px" font-weight="bold" font-family="'Helvetica Neue', Helvetica, Arial-Unicode, Arial, Sans-serif">Created by Petr Bilek</text><text x="0" y="52" fill="#000000" font-size="5px" font-weight="bold" font-family="'Helvetica Neue', Helvetica, Arial-Unicode, Arial, Sans-serif">from the Noun Project</text></svg>