<?xml version="1.0" encoding="UTF-8" standalone="no"?>
<!DOCTYPE svg PUBLIC "-//W3C//DTD SVG 1.1//EN" "http://www.w3.org/Graphics/SVG/1.1/DTD/svg11.dtd">
<svg width="100%" height="100%" viewBox="0 0 847 576" version="1.1" xmlns="http://www.w3.org/2000/svg" xmlns:xlink="http://www.w3.org/1999/xlink" xml:space="preserve" xmlns:serif="http://www.serif.com/" style="fill-rule:evenodd;clip-rule:evenodd;stroke-linejoin:round;stroke-miterlimit:2;">
    <g transform="matrix(1,0,0,1,0,-134)">
        <path d="M271.01,599.08L474.92,599.08L474.92,229.71C474.92,220.36 482.51,212.77 491.86,212.77L577.66,212.77L577.66,178.52L422.63,178.52L380.89,212.11C377.77,214.62 374.03,215.83 370.31,215.83L52.46,215.89L52.46,599.08L102.38,599.08C105.77,582.21 114.14,567.09 125.89,555.31C141.55,539.67 163.03,530.03 186.69,530.03C210.42,530.03 231.92,539.66 247.49,555.23C259.23,567.03 267.61,582.17 271.01,599.08ZM386.91,354.92L398.61,343.22C405.22,336.61 415.94,336.61 422.55,343.22C429.16,349.83 429.16,360.55 422.55,367.16L387.62,402.08L387.34,402.38L386.77,402.95L386.74,402.97L386.16,403.5L386.09,403.55L385.43,404.09L385.21,404.26L385.09,404.34L384.88,404.5L384.74,404.59L384.21,404.96L384.04,405.06L383.51,405.38L383.32,405.48L383.15,405.58L382.05,406.13L381.83,406.22L381.45,406.38L381.29,406.45L381.07,406.53L380.9,406.6L380.68,406.67C379.58,407.06 378.42,407.33 377.24,407.49L377.11,407.5C376.44,407.58 375.77,407.63 375.08,407.63C374.39,407.63 373.72,407.58 373.05,407.5L372.92,407.49C371.73,407.34 370.58,407.05 369.48,406.67L369.26,406.6L369.09,406.53L368.87,406.45L368.71,406.38L368.33,406.22L368.11,406.13L367.01,405.58L366.84,405.48L366.65,405.38L366.12,405.06L365.95,404.96L365.42,404.59L365.28,404.5L365.07,404.34L364.95,404.26L364.73,404.09L364.07,403.55L364,403.5L363.42,402.97L363.39,402.95L362.82,402.38L362.8,402.35L362.27,401.77L362.22,401.7L361.68,401.04L361.51,400.82L361.43,400.7L361.27,400.49L361.18,400.35L360.81,399.82L360.71,399.65L360.39,399.12L360.29,398.93L360.19,398.76L359.64,397.66L359.55,397.44L359.39,397.06L359.32,396.9L359.24,396.68L359.17,396.51L359.1,396.29C358.71,395.2 358.44,394.04 358.28,392.85L358.27,392.72C358.19,392.06 358.14,391.39 358.14,390.69C358.14,364.94 347.7,341.63 330.85,324.78C314.04,307.91 290.73,297.49 264.95,297.49C247.41,297.49 231.05,302.28 217.15,310.61C202.69,319.26 190.74,331.77 182.74,346.68C178.33,354.89 168.07,357.97 159.86,353.56C151.65,349.15 148.57,338.89 152.98,330.68C163.85,310.42 180.11,293.42 199.81,281.63C218.91,270.19 241.2,263.61 264.95,263.61C299.96,263.61 331.74,277.86 354.76,300.87C369.63,315.7 380.84,334.22 386.91,354.92ZM143,426.45L131.3,438.15C124.69,444.76 113.97,444.76 107.36,438.15C100.75,431.54 100.75,420.82 107.36,414.21L142.28,379.3L142.56,379L143.13,378.43L143.16,378.41L143.74,377.88L143.81,377.83L144.47,377.29L144.69,377.12L144.81,377.04L145.02,376.88L145.16,376.79L145.69,376.42L145.86,376.32L146.39,376L146.58,375.9L146.75,375.8L147.85,375.25L148.07,375.16L148.45,375L148.61,374.93L148.83,374.85L149,374.78L149.22,374.71C150.32,374.32 151.48,374.05 152.66,373.89L152.79,373.88C153.46,373.8 154.13,373.75 154.82,373.75C155.51,373.75 156.18,373.8 156.85,373.88L156.98,373.89C158.17,374.04 159.32,374.33 160.42,374.71L160.64,374.78L160.81,374.85L161.03,374.93L161.19,375L161.57,375.16L161.79,375.25L162.89,375.8L163.06,375.9L163.25,376L163.78,376.32L163.95,376.42L164.48,376.79L164.62,376.88L164.83,377.04L164.95,377.12L165.17,377.29L165.83,377.83L165.9,377.88L166.48,378.41L166.51,378.43L167.08,379L167.1,379.03L167.63,379.61L167.68,379.68L168.22,380.34L168.39,380.56L168.47,380.68L168.63,380.89L168.72,381.03L169.09,381.56L169.19,381.73L169.51,382.26L169.61,382.45L169.71,382.62L170.26,383.72L170.35,383.94L170.51,384.32L170.58,384.48L170.66,384.7L170.73,384.87L170.8,385.09C171.19,386.18 171.46,387.34 171.62,388.53L171.63,388.66C171.71,389.32 171.76,389.99 171.76,390.69C171.76,416.43 182.2,439.74 199.05,456.59C215.87,473.44 239.19,483.87 264.95,483.87C282.49,483.87 298.85,479.08 312.76,470.75C327.21,462.11 339.16,449.6 347.16,434.69C351.57,426.48 361.83,423.4 370.04,427.81C378.25,432.22 381.33,442.48 376.92,450.69C366.05,470.96 349.79,487.95 330.1,499.73C310.99,511.17 288.69,517.75 264.95,517.75C229.92,517.75 198.17,503.51 175.17,480.53C160.28,465.68 149.08,447.16 143,426.45ZM102.37,632.96L35.52,632.96C26.17,632.96 18.58,625.37 18.58,616.02L18.58,198.95C18.58,189.6 26.17,182.01 35.52,182.01L364.43,182.01L405.15,149.24C408.18,146.39 412.26,144.64 416.75,144.64L594.6,144.64C603.95,144.64 611.54,152.23 611.54,161.58L611.54,229.71C611.54,239.06 603.95,246.65 594.6,246.65L508.8,246.65L508.8,268.24L686.97,268.24C691.84,268.31 696.67,270.41 700,274.46L743.7,327.7C745.33,328.7 746.82,329.98 748.09,331.56L823.38,424.75L823.44,424.81L823.52,424.9L823.57,424.95L823.65,425.05L823.71,425.1L823.79,425.19L823.84,425.24L823.92,425.35L823.96,425.39L824.05,425.5L824.09,425.54L824.18,425.65L824.22,425.69L824.43,425.96L824.55,426.12L824.58,426.15L824.67,426.28L824.7,426.31L824.91,426.6L824.93,426.62L825.14,426.93L825.16,426.95L825.36,427.27L825.37,427.27L825.47,427.44L825.48,427.44L825.57,427.61L825.58,427.61L825.88,428.11L825.88,428.13L825.98,428.29L825.98,428.3L826.07,428.46L826.34,428.99L826.35,429.02L826.43,429.17L826.44,429.2L826.6,429.53L826.61,429.57L827.11,430.82L827.13,430.9L827.18,431.01L827.2,431.09L827.24,431.2L827.26,431.28L827.3,431.39L827.32,431.48L827.36,431.58L827.44,431.87L827.47,431.97L827.49,432.07L827.52,432.16L827.54,432.27L827.57,432.36L827.59,432.47L827.62,432.56L827.64,432.67L827.73,433.08L827.75,433.15L827.77,433.28L827.79,433.35L827.82,433.55L827.93,434.32L827.94,434.36L827.98,434.74L827.99,434.77L828.01,435.16L828.02,435.19L828.03,435.37L828.04,435.39L828.04,435.58L828.05,435.6L828.05,435.8L828.06,436.02L828.06,436.22L828.07,436.44L828.06,436.44L828.06,616.02C828.06,625.37 820.47,632.96 811.12,632.96L737.84,632.96C734.45,649.9 726.08,665.05 714.31,676.82L713.31,677.74C697.8,692.77 676.72,702.02 653.52,702.02C629.79,702.02 608.29,692.39 592.72,676.82L591.79,675.82C580.52,664.19 572.5,649.41 569.2,632.96L271.01,632.96C267.62,649.84 259.26,664.96 247.52,676.73L247.43,676.82C231.84,692.38 210.36,702.02 186.69,702.02C163.49,702.02 142.41,692.77 126.9,677.74L125.9,676.82C114.13,665.05 105.76,649.9 102.37,632.96ZM186.69,563.91C172.26,563.91 159.21,569.73 149.84,579.11C140.4,588.54 134.58,601.59 134.58,616.02C134.58,630.42 140.42,643.46 149.84,652.88L150.55,653.64C159.86,662.61 172.61,668.14 186.69,668.14C201.13,668.14 214.18,662.32 223.55,652.94C232.99,643.51 238.81,630.46 238.81,616.02C238.81,601.58 232.99,588.54 223.61,579.17C214.13,569.75 201.09,563.91 186.69,563.91ZM737.83,599.08L794.18,599.08L794.18,453.38L580.49,453.38C571.14,453.38 563.55,445.79 563.55,436.44L563.55,342.14C563.55,332.79 571.14,325.2 580.49,325.2L697.99,325.2L679.05,302.12L508.81,302.12L508.81,599.08L569.2,599.08C572.6,582.17 580.98,567.03 592.75,555.26C608.29,539.66 629.79,530.03 653.52,530.03C677.19,530.03 698.66,539.67 714.25,555.23L714.34,555.32C726.08,567.09 734.44,582.21 737.83,599.08ZM690.4,579.14C681,569.73 667.96,563.91 653.52,563.91C639.12,563.91 626.08,569.75 616.66,579.17C607.22,588.54 601.4,601.58 601.4,616.02C601.4,630.1 606.93,642.86 615.9,652.17L616.66,652.88C626.08,662.3 639.12,668.14 653.52,668.14C667.6,668.14 680.35,662.61 689.66,653.64L690.37,652.88C699.79,643.46 705.63,630.42 705.63,616.02C705.63,601.59 699.81,588.54 690.4,579.14ZM775.39,419.5L725.8,359.08L597.43,359.08L597.43,419.5L775.39,419.5Z" style="fill:rgb(109,156,53);fill-rule:nonzero;"/>
    </g>
</svg>
